REM DIRINDEX 1\2,1\3,1\4
REM DIRNAME folder01,folder02,folder03,folder04
TITLE ""
FILE "019 019_TOEFL_3900.mp3" MP3
  TRACK 01 AUDIO
    TITLE "2:cjc151_0798"
    INDEX 01 00:00:00
  TRACK 02 AUDIO
    TITLE "0:"
    INDEX 01 00:01:46
  TRACK 03 AUDIO
    TITLE "3:cjc151_0799"
    INDEX 01 00:03:25
  TRACK 04 AUDIO
    TITLE "0:"
    INDEX 01 00:07:23
  TRACK 05 AUDIO
    TITLE "2:cjc151_0800"
    INDEX 01 00:09:02
  TRACK 06 AUDIO
    TITLE "0:"
    INDEX 01 00:10:39
  TRACK 07 AUDIO
    TITLE "3:cjc151_0801"
    INDEX 01 00:12:24
  TRACK 08 AUDIO
    TITLE "0:"
    INDEX 01 00:16:67
  TRACK 09 AUDIO
    TITLE "2:cjc151_0802"
    INDEX 01 00:18:46
  TRACK 10 AUDIO
    TITLE "0:"
    INDEX 01 00:19:44
  TRACK 11 AUDIO
    TITLE "3:cjc151_0803"
    INDEX 01 00:21:21
  TRACK 12 AUDIO
    TITLE "0:"
    INDEX 01 00:25:01
  TRACK 13 AUDIO
    TITLE "2:cjc151_0804"
    INDEX 01 00:26:56
  TRACK 14 AUDIO
    TITLE "0:"
    INDEX 01 00:27:55
  TRACK 15 AUDIO
    TITLE "3:cjc151_0805"
    INDEX 01 00:29:34
  TRACK 16 AUDIO
    TITLE "0:"
    INDEX 01 00:33:62
  TRACK 17 AUDIO
    TITLE "2:cjc151_0806"
    INDEX 01 00:35:43
  TRACK 18 AUDIO
    TITLE "0:"
    INDEX 01 00:36:42
  TRACK 19 AUDIO
    TITLE "3:cjc151_0807"
    INDEX 01 00:38:22
  TRACK 20 AUDIO
    TITLE "0:"
    INDEX 01 00:41:67
  TRACK 21 AUDIO
    TITLE "2:cjc151_0808"
    INDEX 01 00:43:46
  TRACK 22 AUDIO
    TITLE "0:"
    INDEX 01 00:44:60
  TRACK 23 AUDIO
    TITLE "3:cjc151_0809"
    INDEX 01 00:46:37
  TRACK 24 AUDIO
    TITLE "0:"
    INDEX 01 00:49:72
  TRACK 25 AUDIO
    TITLE "2:cjc151_0810"
    INDEX 01 00:51:52
  TRACK 26 AUDIO
    TITLE "0:"
    INDEX 01 00:52:65
  TRACK 27 AUDIO
    TITLE "3:cjc151_0811"
    INDEX 01 00:54:46
  TRACK 28 AUDIO
    TITLE "0:"
    INDEX 01 00:58:40
  TRACK 29 AUDIO
    TITLE "2:cjc151_0812"
    INDEX 01 01:00:21
  TRACK 30 AUDIO
    TITLE "0:"
    INDEX 01 01:01:21
  TRACK 31 AUDIO
    TITLE "3:cjc151_0813"
    INDEX 01 01:02:71
  TRACK 32 AUDIO
    TITLE "0:"
    INDEX 01 01:06:47
  TRACK 33 AUDIO
    TITLE "2:cjc151_0814"
    INDEX 01 01:08:31
  TRACK 34 AUDIO
    TITLE "0:"
    INDEX 01 01:11:11
  TRACK 35 AUDIO
    TITLE "3:cjc151_0815"
    INDEX 01 01:12:70
  TRACK 36 AUDIO
    TITLE "0:"
    INDEX 01 01:17:12
  TRACK 37 AUDIO
    TITLE "2:cjc151_0816"
    INDEX 01 01:18:66
  TRACK 38 AUDIO
    TITLE "0:"
    INDEX 01 01:20:26
  TRACK 39 AUDIO
    TITLE "3:cjc151_0817"
    INDEX 01 01:22:03
  TRACK 40 AUDIO
    TITLE "0:"
    INDEX 01 01:26:19
  TRACK 41 AUDIO
    TITLE "2:cjc151_0818"
    INDEX 01 01:27:71
  TRACK 42 AUDIO
    TITLE "0:"
    INDEX 01 01:29:31
  TRACK 43 AUDIO
    TITLE "3:cjc151_0819"
    INDEX 01 01:31:14
  TRACK 44 AUDIO
    TITLE "0:"
    INDEX 01 01:35:65
  TRACK 45 AUDIO
    TITLE "2:cjc151_0820"
    INDEX 01 01:37:44
  TRACK 46 AUDIO
    TITLE "0:"
    INDEX 01 01:40:15
  TRACK 47 AUDIO
    TITLE "3:cjc151_0821"
    INDEX 01 01:41:69
  TRACK 48 AUDIO
    TITLE "0:"
    INDEX 01 01:46:65
  TRACK 49 AUDIO
    TITLE "2:cjc151_0822"
    INDEX 01 01:48:42
  TRACK 50 AUDIO
    TITLE "0:"
    INDEX 01 01:49:49
  TRACK 51 AUDIO
    TITLE "3:cjc151_0823"
    INDEX 01 01:51:28
  TRACK 52 AUDIO
    TITLE "0:"
    INDEX 01 01:54:60
  TRACK 53 AUDIO
    TITLE "2:cjc151_0824"
    INDEX 01 01:56:39
  TRACK 54 AUDIO
    TITLE "0:"
    INDEX 01 01:57:47
  TRACK 55 AUDIO
    TITLE "3:cjc151_0825"
    INDEX 01 01:59:26
  TRACK 56 AUDIO
    TITLE "0:"
    INDEX 01 02:03:47
  TRACK 57 AUDIO
    TITLE "2:cjc151_0826"
    INDEX 01 02:05:27
  TRACK 58 AUDIO
    TITLE "0:"
    INDEX 01 02:06:32
  TRACK 59 AUDIO
    TITLE "3:cjc151_0827"
    INDEX 01 02:08:09
  TRACK 60 AUDIO
    TITLE "0:"
    INDEX 01 02:12:38
  TRACK 61 AUDIO
    TITLE "2:cjc151_0828"
    INDEX 01 02:14:20
  TRACK 62 AUDIO
    TITLE "0:"
    INDEX 01 02:15:52
  TRACK 63 AUDIO
    TITLE "3:cjc151_0829"
    INDEX 01 02:17:34
  TRACK 64 AUDIO
    TITLE "0:"
    INDEX 01 02:21:67
  TRACK 65 AUDIO
    TITLE "2:cjc151_0830"
    INDEX 01 02:23:48
  TRACK 66 AUDIO
    TITLE "0:"
    INDEX 01 02:24:63
  TRACK 67 AUDIO
    TITLE "3:cjc151_0831"
    INDEX 01 02:26:42
  TRACK 68 AUDIO
    TITLE "0:"
    INDEX 01 02:30:50
  TRACK 69 AUDIO
    TITLE "2:cjc151_0832"
    INDEX 01 02:32:29
  TRACK 70 AUDIO
    TITLE "0:"
    INDEX 01 02:33:43
  TRACK 71 AUDIO
    TITLE "3:cjc151_0833"
    INDEX 01 02:35:24
  TRACK 72 AUDIO
    TITLE "0:"
    INDEX 01 02:40:09
  TRACK 73 AUDIO
    TITLE "2:cjc151_0834"
    INDEX 01 02:41:69
  TRACK 74 AUDIO
    TITLE "0:"
    INDEX 01 02:43:06
  TRACK 75 AUDIO
    TITLE "3:cjc151_0835"
    INDEX 01 02:44:60
  TRACK 76 AUDIO
    TITLE "0:"
    INDEX 01 02:48:15
  TRACK 77 AUDIO
    TITLE "2:cjc151_0836"
    INDEX 01 02:49:69
  TRACK 78 AUDIO
    TITLE "0:"
    INDEX 01 02:51:27
  TRACK 79 AUDIO
    TITLE "3:cjc151_0837"
    INDEX 01 02:53:08
  TRACK 80 AUDIO
    TITLE "0:"
    INDEX 01 02:56:69
  TRACK 81 AUDIO
    TITLE "2:cjc151_0838"
    INDEX 01 02:58:46
  TRACK 82 AUDIO
    TITLE "0:"
    INDEX 01 03:00:00
  TRACK 83 AUDIO
    TITLE "3:cjc151_0839"
    INDEX 01 03:01:57
  TRACK 84 AUDIO
    TITLE "0:"
    INDEX 01 03:05:68
  TRACK 85 AUDIO
    TITLE "2:cjc151_0840"
    INDEX 01 03:07:47
  TRACK 86 AUDIO
    TITLE "0:"
    INDEX 01 03:08:51
  TRACK 87 AUDIO
    TITLE "3:cjc151_0841"
    INDEX 01 03:10:28
  TRACK 88 AUDIO
    TITLE "0:"
    INDEX 01 03:13:40
